<mxfile host="app.diagrams.net" modified="2023-06-15T13:14:19.200Z" agent="Mozilla/5.0 (Windows NT 10.0; Win64; x64) AppleWebKit/537.36 (KHTML, like Gecko) Chrome/112.0.0.0 Safari/537.36" etag="mj54NZypxPKPdpBVwbbs" version="21.3.7" type="github">
  <diagram name="第 1 页" id="6qoMuSo60Mv4US6W9G2k">
    <mxGraphModel dx="1461" dy="636" grid="1" gridSize="10" guides="1" tooltips="1" connect="1" arrows="1" fold="1" page="1" pageScale="1" pageWidth="827" pageHeight="1169" math="0" shadow="0">
      <root>
        <mxCell id="0" />
        <mxCell id="1" parent="0" />
        <mxCell id="fbMO9V6QrxgFik-bqoAL-9" style="edgeStyle=orthogonalEdgeStyle;rounded=0;orthogonalLoop=1;jettySize=auto;html=1;exitX=0.5;exitY=1;exitDx=0;exitDy=0;entryX=0.5;entryY=0;entryDx=0;entryDy=0;" edge="1" parent="1" source="fbMO9V6QrxgFik-bqoAL-2" target="fbMO9V6QrxgFik-bqoAL-3">
          <mxGeometry relative="1" as="geometry" />
        </mxCell>
        <mxCell id="fbMO9V6QrxgFik-bqoAL-2" value="开始" style="rounded=1;whiteSpace=wrap;html=1;" vertex="1" parent="1">
          <mxGeometry x="160" y="100" width="120" height="60" as="geometry" />
        </mxCell>
        <mxCell id="fbMO9V6QrxgFik-bqoAL-10" style="edgeStyle=orthogonalEdgeStyle;rounded=0;orthogonalLoop=1;jettySize=auto;html=1;exitX=0.5;exitY=1;exitDx=0;exitDy=0;entryX=0.5;entryY=0;entryDx=0;entryDy=0;" edge="1" parent="1" source="fbMO9V6QrxgFik-bqoAL-3" target="fbMO9V6QrxgFik-bqoAL-4">
          <mxGeometry relative="1" as="geometry" />
        </mxCell>
        <mxCell id="fbMO9V6QrxgFik-bqoAL-3" value="初始化&lt;br&gt;ACTIONGOTO表" style="rounded=0;whiteSpace=wrap;html=1;" vertex="1" parent="1">
          <mxGeometry x="160" y="200" width="120" height="40" as="geometry" />
        </mxCell>
        <mxCell id="fbMO9V6QrxgFik-bqoAL-11" style="edgeStyle=orthogonalEdgeStyle;rounded=0;orthogonalLoop=1;jettySize=auto;html=1;exitX=0.5;exitY=1;exitDx=0;exitDy=0;entryX=0.5;entryY=0;entryDx=0;entryDy=0;" edge="1" parent="1" source="fbMO9V6QrxgFik-bqoAL-4" target="fbMO9V6QrxgFik-bqoAL-5">
          <mxGeometry relative="1" as="geometry" />
        </mxCell>
        <mxCell id="fbMO9V6QrxgFik-bqoAL-4" value="初始化文法&lt;br&gt;initGrammer()" style="rounded=0;whiteSpace=wrap;html=1;" vertex="1" parent="1">
          <mxGeometry x="160" y="280" width="120" height="40" as="geometry" />
        </mxCell>
        <mxCell id="fbMO9V6QrxgFik-bqoAL-12" style="edgeStyle=orthogonalEdgeStyle;rounded=0;orthogonalLoop=1;jettySize=auto;html=1;exitX=0.5;exitY=1;exitDx=0;exitDy=0;entryX=0.5;entryY=0;entryDx=0;entryDy=0;" edge="1" parent="1" source="fbMO9V6QrxgFik-bqoAL-5" target="fbMO9V6QrxgFik-bqoAL-6">
          <mxGeometry relative="1" as="geometry" />
        </mxCell>
        <mxCell id="fbMO9V6QrxgFik-bqoAL-5" value="从控制台获取表达式&lt;br&gt;gertExpression()" style="rounded=0;whiteSpace=wrap;html=1;" vertex="1" parent="1">
          <mxGeometry x="160" y="360" width="120" height="40" as="geometry" />
        </mxCell>
        <mxCell id="fbMO9V6QrxgFik-bqoAL-13" style="edgeStyle=orthogonalEdgeStyle;rounded=0;orthogonalLoop=1;jettySize=auto;html=1;exitX=0.5;exitY=1;exitDx=0;exitDy=0;entryX=0.5;entryY=0;entryDx=0;entryDy=0;" edge="1" parent="1" source="fbMO9V6QrxgFik-bqoAL-6" target="fbMO9V6QrxgFik-bqoAL-7">
          <mxGeometry relative="1" as="geometry" />
        </mxCell>
        <mxCell id="fbMO9V6QrxgFik-bqoAL-6" value="总控程序&lt;br&gt;analysis()" style="rounded=0;whiteSpace=wrap;html=1;" vertex="1" parent="1">
          <mxGeometry x="160" y="440" width="120" height="40" as="geometry" />
        </mxCell>
        <mxCell id="fbMO9V6QrxgFik-bqoAL-14" style="edgeStyle=orthogonalEdgeStyle;rounded=0;orthogonalLoop=1;jettySize=auto;html=1;exitX=0.5;exitY=1;exitDx=0;exitDy=0;entryX=0.5;entryY=0;entryDx=0;entryDy=0;" edge="1" parent="1" source="fbMO9V6QrxgFik-bqoAL-7" target="fbMO9V6QrxgFik-bqoAL-8">
          <mxGeometry relative="1" as="geometry" />
        </mxCell>
        <mxCell id="fbMO9V6QrxgFik-bqoAL-7" value="输出结果" style="rounded=0;whiteSpace=wrap;html=1;" vertex="1" parent="1">
          <mxGeometry x="160" y="520" width="120" height="40" as="geometry" />
        </mxCell>
        <mxCell id="fbMO9V6QrxgFik-bqoAL-8" value="结束" style="rounded=1;whiteSpace=wrap;html=1;" vertex="1" parent="1">
          <mxGeometry x="160" y="600" width="120" height="60" as="geometry" />
        </mxCell>
      </root>
    </mxGraphModel>
  </diagram>
</mxfile>
